<svg width="24" height="25" viewBox="0 0 24 25" fill="none" xmlns="http://www.w3.org/2000/svg">
<path d="M12.0002 3.99677C14.8839 3.99677 15.2255 4.00774 16.3643 4.0597C17.4173 4.10776 17.9891 4.2837 18.3697 4.43156C18.8738 4.62748 19.2336 4.86155 19.6115 5.23946C19.9894 5.61736 20.2235 5.97718 20.4194 6.48125C20.5673 6.86186 20.7432 7.43371 20.7913 8.48665C20.8432 9.62551 20.8542 9.96706 20.8542 12.8508C20.8542 15.7345 20.8432 16.0761 20.7913 17.2149C20.7432 18.2679 20.5673 18.8397 20.4194 19.2204C20.2235 19.7244 19.9894 20.0842 19.6115 20.4621C19.2336 20.84 18.8738 21.0741 18.3697 21.27C17.9891 21.4179 17.4173 21.5938 16.3643 21.6419C15.2256 21.6939 14.8841 21.7048 12.0002 21.7048C9.11626 21.7048 8.77471 21.6939 7.63607 21.6419C6.58308 21.5938 6.01123 21.4179 5.63066 21.27C5.12655 21.0741 4.76673 20.84 4.38883 20.4621C4.01092 20.0842 3.77685 19.7244 3.58097 19.2204C3.43307 18.8397 3.25713 18.2679 3.20907 17.215C3.15711 16.0761 3.14614 15.7345 3.14614 12.8508C3.14614 9.96706 3.15711 9.62551 3.20907 8.4867C3.25713 7.43371 3.43307 6.86186 3.58097 6.48125C3.77685 5.97718 4.01092 5.61736 4.38883 5.23946C4.76673 4.86155 5.12655 4.62748 5.63066 4.43156C6.01123 4.2837 6.58308 4.10776 7.63602 4.0597C8.77488 4.00774 9.11644 3.99677 12.0002 3.99677ZM12.0002 2.05078C9.06705 2.05078 8.6993 2.06321 7.54737 2.11577C6.39779 2.16825 5.61274 2.35079 4.92574 2.61779C4.21555 2.89379 3.61326 3.26308 3.01285 3.86348C2.41245 4.46389 2.04316 5.06618 1.76716 5.77637C1.50016 6.46337 1.31762 7.24842 1.26514 8.398C1.21258 9.54989 1.2002 9.91768 1.2002 12.8508C1.2002 15.7839 1.21258 16.1517 1.26514 17.3036C1.31762 18.4532 1.50016 19.2382 1.76716 19.9252C2.04316 20.6354 2.41245 21.2377 3.01285 21.8381C3.61326 22.4385 4.21555 22.8078 4.92574 23.0838C5.61274 23.3508 6.39779 23.5334 7.54737 23.5858C8.6993 23.6384 9.06705 23.6508 12.0002 23.6508C14.9333 23.6508 15.3011 23.6384 16.453 23.5858C17.6026 23.5334 18.3876 23.3508 19.0746 23.0838C19.7848 22.8078 20.3871 22.4385 20.9875 21.8381C21.5879 21.2377 21.9572 20.6354 22.2332 19.9252C22.5002 19.2382 22.6827 18.4532 22.7352 17.3036C22.7878 16.1517 22.8002 15.7839 22.8002 12.8508C22.8002 9.91768 22.7878 9.54989 22.7352 8.398C22.6827 7.24842 22.5002 6.46337 22.2332 5.77637C21.9572 5.06618 21.5879 4.46389 20.9875 3.86348C20.3871 3.26308 19.7848 2.89379 19.0746 2.61779C18.3876 2.35079 17.6026 2.16825 16.453 2.11577C15.3011 2.06321 14.9333 2.05078 12.0002 2.05078ZM12.0002 7.30484C8.93724 7.30484 6.45421 9.78786 6.45421 12.8508C6.45421 15.9137 8.93724 18.3968 12.0002 18.3968C15.0631 18.3968 17.5461 15.9137 17.5461 12.8508C17.5461 9.78786 15.0631 7.30484 12.0002 7.30484ZM12.0002 16.4508C10.012 16.4508 8.40015 14.839 8.40015 12.8508C8.40015 10.8626 10.012 9.25078 12.0002 9.25078C13.9884 9.25078 15.6002 10.8626 15.6002 12.8508C15.6002 14.839 13.9884 16.4508 12.0002 16.4508ZM19.0612 7.08573C19.0612 7.80149 18.481 8.38175 17.7652 8.38175C17.0495 8.38175 16.4692 7.80149 16.4692 7.08573C16.4692 6.36996 17.0495 5.78975 17.7652 5.78975C18.481 5.78975 19.0612 6.36996 19.0612 7.08573Z" fill="#4D0096"/>
</svg>
