<svg width="33" height="32" viewBox="0 0 33 32" fill="none" xmlns="http://www.w3.org/2000/svg">
<path fill-rule="evenodd" clip-rule="evenodd" d="M16.7971 10.0039C22.7349 10.1614 27.5 15.0242 27.5 21C27.5 27.0751 22.5751 32 16.5 32C10.4249 32 5.5 27.0751 5.5 21C5.5 18.8837 6.09764 16.907 7.13335 15.2294L15.3634 0.0687256L20.6366 2.93128L16.7971 10.0039ZM12.307 18.2751C13.1989 16.9055 14.7437 16 16.5 16C19.2614 16 21.5 18.2386 21.5 21C21.5 23.7614 19.2614 26 16.5 26C13.7386 26 11.5 23.7614 11.5 21C11.5 20.1874 11.7031 19.3877 12.0907 18.6736L12.307 18.2751Z" fill="#9019FF"/>
</svg>
