<svg width="32" height="32" viewBox="0 0 32 32" fill="none" xmlns="http://www.w3.org/2000/svg">
<path d="M8.23968 0H26.0001V6H13.7605L13.4014 10.3094C14.235 10.1072 15.1054 10 16.0001 10C22.0752 10 27.0001 14.9249 27.0001 21C27.0001 27.0751 22.0752 32 16.0001 32C11.379 32 7.43036 29.1514 5.80078 25.1256L11.3624 22.8744C12.1064 24.7123 13.9064 26 16.0001 26C18.7615 26 21.0001 23.7614 21.0001 21C21.0001 18.2386 18.7615 16 16.0001 16C14.73 16 13.5769 16.4697 12.6936 17.2492L11.843 18H6.73968L8.23968 0Z" fill="#9019FF"/>
</svg>
