<svg width="32" height="32" viewBox="0 0 32 32" fill="none" xmlns="http://www.w3.org/2000/svg">
<path fill-rule="evenodd" clip-rule="evenodd" d="M22.9078 14.7694C24.2139 13.2073 25 11.1954 25 9C25 4.02944 20.9706 0 16 0C11.0294 0 7 4.02944 7 9C7 11.1954 7.78609 13.2073 9.09216 14.7694C7.18683 16.5902 6 19.1565 6 22C6 27.5228 10.4772 32 16 32C21.5228 32 26 27.5228 26 22C26 19.1565 24.8132 16.5902 22.9078 14.7694ZM19 9C19 10.6569 17.6569 12 16 12C14.3431 12 13 10.6569 13 9C13 7.34315 14.3431 6 16 6C17.6569 6 19 7.34315 19 9ZM16 18C13.7909 18 12 19.7909 12 22C12 24.2091 13.7909 26 16 26C18.2091 26 20 24.2091 20 22C20 19.7909 18.2091 18 16 18Z" fill="#9019FF"/>
</svg>
